<svg width="30" height="26" viewBox="0 0 30 26" fill="none" xmlns="http://www.w3.org/2000/svg">
<path d="M0.00637841 18.8014C0.00637841 22.7455 3.20358 25.9427 7.14771 25.9427C11.0919 25.9427 14.2891 22.7455 14.2891 18.8014C14.2891 14.8572 11.0919 11.66 7.14771 11.66C6.33713 11.66 5.56121 11.8013 4.83484 12.0503C6.44194 2.83317 13.6296 -3.11086 6.96666 1.7812C-0.421498 7.20594 -0.00153429 18.5831 0.00673271 18.7916C0.00673271 18.7949 0.00637841 18.7978 0.00637841 18.8014Z" fill="#010101"/>
<path d="M15.7173 18.7758C15.7173 22.72 18.9145 25.9172 22.8587 25.9172C26.8029 25.9172 30.0001 22.72 30.0001 18.7758C30.0001 14.8317 26.8028 11.6345 22.8587 11.6345C22.048 11.6345 21.2722 11.7758 20.5458 12.0248C22.1529 2.80766 29.3405 -3.13637 22.6776 1.75568C15.2895 7.18043 15.7094 18.5576 15.7177 18.7661C15.7177 18.7693 15.7173 18.7722 15.7173 18.7758Z" fill="#010101"/>
</svg>
